<svg xmlns="http://www.w3.org/2000/svg" viewBox="0 0 126.24 102.59"><defs><style>.cls-1{fill:#1da1f2;}</style></defs><g id="Layer_2" data-name="Layer 2"><g id="twitter"><path class="cls-1" d="M113.32,25.56c.05,1.11.07,2.22.07,3.34,0,34.23-26,73.69-73.69,73.69A73.27,73.27,0,0,1,0,91a52.59,52.59,0,0,0,6.18.36A52,52,0,0,0,38.35,80.23a25.93,25.93,0,0,1-24.2-18,25.21,25.21,0,0,0,4.87.47,26.11,26.11,0,0,0,6.83-.91A25.91,25.91,0,0,1,5.07,36.41v-.33A25.75,25.75,0,0,0,16.8,39.32a25.92,25.92,0,0,1-8-34.58A73.52,73.52,0,0,0,62.17,31.8,25.92,25.92,0,0,1,106.31,8.18,51.92,51.92,0,0,0,122.75,1.9a25.94,25.94,0,0,1-11.39,14.32,51.55,51.55,0,0,0,14.88-4.07A53,53,0,0,1,113.32,25.56Zm-54,23.68c7.37-7.3,21.92-10.6,31-5.4,8.21,4.42,3,14.71-5.18,14.09-5.91.08-20.68-5.49-25.24-4.36-.57.85-2,2.44-3.17,3.87,5.81-2.43,20.2,3.59,24.6,3,6.84.19,15.22-4.53,15.22-11.58-.21-6.91-6.84-9.13-13.63-9.15-13.37,0-25.43,6-31.53,17.54C40.65,74.56,59.89,91.78,72.94,73c2.49-3.85,4.82-8.53,1.68-11.46C72.94,93.46,34.83,74.39,59.32,49.24Z"/></g></g></svg>